<svg width="60" height="62" viewBox="0 0 60 62" fill="none" xmlns="http://www.w3.org/2000/svg">
<g clip-path="url(#clip0_8_2)">
<path d="M59.4051 5.88076V17.6255C59.4051 22.2956 57.5284 26.7744 54.1878 30.0767C50.8472 33.379 46.3164 35.2342 41.5921 35.2342C37.6827 35.2342 33.4164 33.7388 30.306 31.252L29.728 30.7816V30.748C26.7875 28.4461 22.3513 26.7659 18.4419 26.7659C14.0519 26.7594 9.81441 28.3571 6.54391 31.252C3.7035 28.9485 1.65228 25.8338 0.670798 22.334C-0.310681 18.8342 -0.174496 15.12 1.06072 11.6996C2.29595 8.27922 4.56989 5.31952 7.57156 3.22531C10.5732 1.1311 14.1561 0.00464576 17.83 3.06964e-06C19.3506 0.0804347 20.7821 0.7342 21.8297 1.82666C22.8773 2.91912 23.4612 4.36708 23.4612 5.87236C23.4612 7.37764 22.8773 8.82561 21.8297 9.91806C20.7821 11.0105 19.3506 11.6643 17.83 11.7447C16.6527 11.7414 15.5009 12.0835 14.5203 12.7276C13.5398 13.3718 12.7746 14.2891 12.3218 15.3633C11.8689 16.4376 11.7487 17.6206 11.9763 18.7624C12.2039 19.9043 12.7691 20.9537 13.6004 21.7778C14.4317 22.6019 15.4917 23.1637 16.6462 23.392C17.8006 23.6203 18.9976 23.5048 20.0857 23.0602C21.1737 22.6156 22.1038 21.8618 22.7583 20.8944C23.4127 19.9269 23.762 18.7893 23.762 17.6255C23.7189 16.8279 23.8405 16.03 24.1195 15.2804C24.3986 14.5308 24.8292 13.8452 25.385 13.2655C25.9409 12.6859 26.6104 12.2242 27.3527 11.9087C28.095 11.5932 28.8946 11.4305 29.7026 11.4305C30.5106 11.4305 31.3101 11.5932 32.0524 11.9087C32.7947 12.2242 33.4642 12.6859 34.0201 13.2655C34.5759 13.8452 35.0065 14.5308 35.2856 15.2804C35.5646 16.03 35.6862 16.8279 35.6431 17.6255C35.7244 19.1286 36.3858 20.5437 37.4909 21.5792C38.5961 22.6148 40.0608 23.192 41.5836 23.192C43.1063 23.192 44.5711 22.6148 45.6762 21.5792C46.7814 20.5437 47.4427 19.1286 47.5241 17.6255V5.88076C47.4809 5.08317 47.6026 4.28524 47.8816 3.53565C48.1606 2.78606 48.5912 2.10051 49.1471 1.52083C49.703 0.941149 50.3725 0.47948 51.1148 0.163983C51.8571 -0.151514 52.6566 -0.314224 53.4646 -0.314224C54.2726 -0.314224 55.0721 -0.151514 55.8144 0.163983C56.5567 0.47948 57.2262 0.941149 57.7821 1.52083C58.338 2.10051 58.7686 2.78606 59.0476 3.53565C59.3266 4.28524 59.4483 5.08317 59.4051 5.88076Z" fill="#FE6F27"/>
<path d="M60 44.3745C60.0022 46.6883 59.5431 48.9799 58.6489 51.1182C57.7547 53.2566 56.443 55.1997 54.7887 56.8366C53.1344 58.4735 51.1699 59.772 49.0076 60.658C46.8454 61.544 44.5276 62 42.187 62C41.3801 62.0427 40.5729 61.9224 39.8146 61.6466C39.0563 61.3708 38.3628 60.9451 37.7764 60.3956C37.19 59.8461 36.723 59.1843 36.4038 58.4505C36.0847 57.7167 35.9201 56.9264 35.9201 56.1276C35.9201 55.3289 36.0847 54.5385 36.4038 53.8048C36.723 53.071 37.19 52.4092 37.7764 51.8597C38.3628 51.3102 39.0563 50.8845 39.8146 50.6087C40.5729 50.3329 41.3801 50.2126 42.187 50.2553C43.3636 50.2553 44.5137 49.9104 45.4921 49.2642C46.4704 48.618 47.2329 47.6996 47.6831 46.625C48.1334 45.5504 48.2512 44.368 48.0217 43.2272C47.7921 42.0865 47.2255 41.0386 46.3935 40.2162C45.5616 39.3938 44.5016 38.8337 43.3476 38.6068C42.1936 38.3799 40.9974 38.4963 39.9104 38.9414C38.8233 39.3865 37.8942 40.1403 37.2405 41.1073C36.5869 42.0744 36.238 43.2114 36.238 44.3745C36.2811 45.1721 36.1595 45.97 35.8805 46.7196C35.6014 47.4692 35.1708 48.1548 34.615 48.7345C34.0591 49.3141 33.3896 49.7758 32.6473 50.0913C31.905 50.4068 31.1054 50.5695 30.2974 50.5695C29.4894 50.5695 28.6899 50.4068 27.9476 50.0913C27.2053 49.7758 26.5358 49.3141 25.9799 48.7345C25.4241 48.1548 24.9935 47.4692 24.7144 46.7196C24.4354 45.97 24.3138 45.1721 24.3569 44.3745C24.2756 42.8714 23.6142 41.4563 22.5091 40.4208C21.4039 39.3852 19.9392 38.808 18.4164 38.808C16.8937 38.808 15.4289 39.3852 14.3238 40.4208C13.2186 41.4563 12.5573 42.8714 12.4759 44.3745V56.1192C12.5191 56.9168 12.3974 57.7148 12.1184 58.4643C11.8394 59.2139 11.4088 59.8995 10.8529 60.4792C10.297 61.0589 9.62754 61.5205 8.88524 61.836C8.14294 62.1515 7.34341 62.3142 6.5354 62.3142C5.7274 62.3142 4.92787 62.1515 4.18557 61.836C3.44327 61.5205 2.77377 61.0589 2.2179 60.4792C1.66203 59.8995 1.23144 59.2139 0.952401 58.4643C0.673362 57.7148 0.55172 56.9168 0.594894 56.1192V44.3745C0.594893 42.0607 1.0562 39.7696 1.95246 37.6321C2.84871 35.4946 4.16233 33.5527 5.81822 31.9174C7.47411 30.282 9.43981 28.9853 11.603 28.1014C13.7661 27.2175 16.0843 26.7636 18.4249 26.7659C22.3343 26.7659 26.7705 28.4461 29.711 30.748V30.7816L30.2889 31.252C33.3994 33.7388 37.6657 35.2341 41.5751 35.2341C45.9651 35.2406 50.2026 33.6429 53.4731 30.748C55.5146 32.3992 57.1593 34.4783 58.2881 36.835C59.4169 39.1917 60.0017 41.767 60 44.3745Z" fill="#2F2F2F"/>
<path d="M42.085 48.1886C44.169 48.1886 45.8584 46.5186 45.8584 44.4585C45.8584 42.3985 44.169 40.7285 42.085 40.7285C40.001 40.7285 38.3116 42.3985 38.3116 44.4585C38.3116 46.5186 40.001 48.1886 42.085 48.1886Z" fill="#BD5742"/>
<path d="M17.4561 21.3556C19.5401 21.3556 21.2295 19.6855 21.2295 17.6255C21.2295 15.5654 19.5401 13.8954 17.4561 13.8954C15.3721 13.8954 13.6827 15.5654 13.6827 17.6255C13.6827 19.6855 15.3721 21.3556 17.4561 21.3556Z" fill="#FCB70F"/>
</g>
<defs>
<clipPath id="clip0_8_2">
<rect width="60" height="62" fill="white"/>
</clipPath>
</defs>
</svg>
