<svg width="30" height="31" viewBox="0 0 30 31" fill="none" xmlns="http://www.w3.org/2000/svg">
<g clip-path="url(#clip0_10_12)">
<path d="M29.7025 2.94039V8.81275C29.7025 11.1478 28.7642 13.3872 27.0939 15.0384C25.4236 16.6895 23.1582 17.6171 20.796 17.6171C18.8414 17.6171 16.7082 16.8694 15.153 15.626L14.864 15.3908V15.374C13.3938 14.223 11.1756 13.3829 9.22096 13.3829C7.02596 13.3797 4.9072 14.1786 3.27195 15.626C1.85174 14.4743 0.826135 12.9169 0.335395 11.167C-0.155344 9.41709 -0.087252 7.56003 0.530359 5.84983C1.14797 4.13962 2.28494 2.65977 3.78578 1.61266C5.28661 0.565559 7.07802 0.00233051 8.91501 9.16421e-06C9.6753 0.040225 10.391 0.367108 10.9148 0.913337C11.4386 1.45957 11.7306 2.18355 11.7306 2.93619C11.7306 3.68883 11.4386 4.41281 10.9148 4.95904C10.391 5.50527 9.6753 5.83215 8.91501 5.87237C8.32635 5.8707 7.75043 6.04174 7.26016 6.36382C6.76989 6.6859 6.38731 7.14454 6.16088 7.68168C5.93444 8.21881 5.87432 8.81029 5.98813 9.38122C6.10194 9.95215 6.38456 10.4769 6.80022 10.8889C7.21587 11.301 7.74586 11.5819 8.32308 11.696C8.90031 11.8101 9.49882 11.7524 10.0428 11.5301C10.5869 11.3078 11.0519 10.9309 11.3791 10.4472C11.7063 9.96348 11.881 9.39466 11.881 8.81275C11.8594 8.41395 11.9203 8.01499 12.0598 7.64019C12.1993 7.2654 12.4146 6.92262 12.6925 6.63278C12.9705 6.34294 13.3052 6.11211 13.6764 5.95436C14.0475 5.79661 14.4473 5.71525 14.8513 5.71525C15.2553 5.71525 15.655 5.79661 16.0262 5.95436C16.3973 6.11211 16.7321 6.34294 17.01 6.63278C17.288 6.92262 17.5033 7.2654 17.6428 7.64019C17.7823 8.01499 17.8431 8.41395 17.8215 8.81275C17.8622 9.56431 18.1929 10.2718 18.7455 10.7896C19.298 11.3074 20.0304 11.596 20.7918 11.596C21.5532 11.596 22.2855 11.3074 22.8381 10.7896C23.3907 10.2718 23.7214 9.56431 23.762 8.81275V2.94039C23.7405 2.54159 23.8013 2.14263 23.9408 1.76783C24.0803 1.39304 24.2956 1.05026 24.5735 0.760424C24.8515 0.470582 25.1862 0.239747 25.5574 0.0819991C25.9285 -0.0757492 26.3283 -0.157104 26.7323 -0.157104C27.1363 -0.157104 27.5361 -0.0757492 27.9072 0.0819991C28.2784 0.239747 28.6131 0.470582 28.891 0.760424C29.169 1.05026 29.3843 1.39304 29.5238 1.76783C29.6633 2.14263 29.7241 2.54159 29.7025 2.94039Z" fill="#FE6F27"/>
<path d="M30 22.1873C30.0011 23.3442 29.7716 24.49 29.3245 25.5591C28.8774 26.6283 28.2215 27.5999 27.3944 28.4183C26.5672 29.2368 25.585 29.886 24.5038 30.329C23.4227 30.772 22.2638 31 21.0935 31C20.6901 31.0214 20.2865 30.9612 19.9073 30.8233C19.5282 30.6854 19.1814 30.4726 18.8882 30.1978C18.595 29.9231 18.3615 29.5922 18.2019 29.2253C18.0423 28.8584 17.96 28.4632 17.96 28.0638C17.96 27.6645 18.0423 27.2693 18.2019 26.9024C18.3615 26.5355 18.595 26.2046 18.8882 25.9298C19.1814 25.6551 19.5282 25.4423 19.9073 25.3044C20.2865 25.1664 20.6901 25.1063 21.0935 25.1277C21.6818 25.1277 22.2569 24.9552 22.746 24.6321C23.2352 24.309 23.6164 23.8498 23.8416 23.3125C24.0667 22.7752 24.1256 22.184 24.0108 21.6136C23.8961 21.0433 23.6128 20.5193 23.1968 20.1081C22.7808 19.6969 22.2508 19.4168 21.6738 19.3034C21.0968 19.1899 20.4987 19.2482 19.9552 19.4707C19.4117 19.6933 18.9471 20.0701 18.6203 20.5537C18.2934 21.0372 18.119 21.6057 18.119 22.1873C18.1406 22.5861 18.0797 22.985 17.9402 23.3598C17.8007 23.7346 17.5854 24.0774 17.3075 24.3672C17.0295 24.6571 16.6948 24.8879 16.3236 25.0457C15.9525 25.2034 15.5527 25.2848 15.1487 25.2848C14.7447 25.2848 14.345 25.2034 13.9738 25.0457C13.6027 24.8879 13.2679 24.6571 12.99 24.3672C12.712 24.0774 12.4967 23.7346 12.3572 23.3598C12.2177 22.985 12.1569 22.5861 12.1785 22.1873C12.1378 21.4357 11.8071 20.7282 11.2545 20.2104C10.702 19.6926 9.96959 19.404 9.20822 19.404C8.44684 19.404 7.71446 19.6926 7.16189 20.2104C6.60932 20.7282 6.27864 21.4357 6.23796 22.1873V28.0596C6.25955 28.4584 6.19873 28.8574 6.05921 29.2322C5.91969 29.607 5.70439 29.9498 5.42646 30.2396C5.14852 30.5294 4.81377 30.7603 4.44262 30.918C4.07148 31.0758 3.67171 31.1571 3.26771 31.1571C2.8637 31.1571 2.46394 31.0758 2.09279 30.918C1.72164 30.7603 1.38689 30.5294 1.10895 30.2396C0.831017 29.9498 0.615724 29.607 0.476204 29.2322C0.336685 28.8574 0.275864 28.4584 0.297451 28.0596V22.1873C0.29745 21.0304 0.528106 19.8848 0.976231 18.8161C1.42436 17.7473 2.08117 16.7764 2.90911 15.9587C3.73706 15.141 4.71991 14.4927 5.80148 14.0507C6.88305 13.6088 8.04213 13.3818 9.21247 13.3829C11.1671 13.3829 13.3853 14.223 14.8555 15.374V15.3908L15.1445 15.626C16.6997 16.8694 18.8329 17.6171 20.7875 17.6171C22.9825 17.6203 25.1013 16.8214 26.7365 15.374C27.7573 16.1996 28.5797 17.2392 29.1441 18.4175C29.7085 19.5959 30.0008 20.8835 30 22.1873Z" fill="#2F2F2F"/>
<path d="M21.0425 24.0943C22.0845 24.0943 22.9292 23.2593 22.9292 22.2293C22.9292 21.1993 22.0845 20.3643 21.0425 20.3643C20.0005 20.3643 19.1558 21.1993 19.1558 22.2293C19.1558 23.2593 20.0005 24.0943 21.0425 24.0943Z" fill="#BD5742"/>
<path d="M8.72804 10.6778C9.77003 10.6778 10.6147 9.84277 10.6147 8.81273C10.6147 7.7827 9.77003 6.94769 8.72804 6.94769C7.68606 6.94769 6.84136 7.7827 6.84136 8.81273C6.84136 9.84277 7.68606 10.6778 8.72804 10.6778Z" fill="#FCB70F"/>
</g>
<defs>
<clipPath id="clip0_10_12">
<rect width="30" height="31" fill="white"/>
</clipPath>
</defs>
</svg>
